<mxfile host="app.diagrams.net" agent="Mozilla/5.0 (X11; Linux x86_64; rv:139.0) Gecko/20100101 Firefox/139.0" version="27.1.6">
  <diagram name="Page-1" id="q1ctMrB3MQEdgapWwK5I">
    <mxGraphModel dx="1759" dy="1870" grid="1" gridSize="10" guides="1" tooltips="1" connect="1" arrows="1" fold="1" page="1" pageScale="1" pageWidth="850" pageHeight="1100" math="0" shadow="0">
      <root>
        <mxCell id="0" />
        <mxCell id="1" parent="0" />
        <mxCell id="0UwFy1Bwz0Mm4Jx-iPy9-14" value="" style="shape=internalStorage;whiteSpace=wrap;html=1;backgroundOutline=1;dx=50;dy=40;" vertex="1" parent="1">
          <mxGeometry x="370" y="360" width="230" height="180" as="geometry" />
        </mxCell>
        <mxCell id="0UwFy1Bwz0Mm4Jx-iPy9-15" value="&lt;font style=&quot;font-size: 16px;&quot;&gt;PK&lt;/font&gt;" style="text;html=1;align=center;verticalAlign=middle;whiteSpace=wrap;rounded=0;" vertex="1" parent="1">
          <mxGeometry x="370" y="360" width="50" height="40" as="geometry" />
        </mxCell>
        <mxCell id="0UwFy1Bwz0Mm4Jx-iPy9-16" value="&lt;font style=&quot;font-size: 16px;&quot;&gt;user_id&lt;/font&gt;" style="text;html=1;align=center;verticalAlign=middle;whiteSpace=wrap;rounded=0;" vertex="1" parent="1">
          <mxGeometry x="420" y="360" width="100" height="40" as="geometry" />
        </mxCell>
        <mxCell id="0UwFy1Bwz0Mm4Jx-iPy9-17" value="&lt;div&gt;&lt;font style=&quot;font-size: 16px;&quot;&gt;name&lt;/font&gt;&lt;/div&gt;&lt;div&gt;&lt;font style=&quot;font-size: 16px;&quot;&gt;email&lt;/font&gt;&lt;/div&gt;&lt;div&gt;&lt;font style=&quot;font-size: 16px;&quot;&gt;password_hash&lt;/font&gt;&lt;/div&gt;&lt;div&gt;&lt;font style=&quot;font-size: 16px;&quot;&gt;created_at&lt;/font&gt;&lt;/div&gt;&lt;div&gt;&lt;font style=&quot;font-size: 16px;&quot;&gt;updated_at&lt;/font&gt;&lt;/div&gt;" style="text;html=1;align=left;verticalAlign=middle;whiteSpace=wrap;rounded=0;" vertex="1" parent="1">
          <mxGeometry x="440" y="400" width="160" height="140" as="geometry" />
        </mxCell>
        <mxCell id="0UwFy1Bwz0Mm4Jx-iPy9-18" value="" style="rounded=0;whiteSpace=wrap;html=1;" vertex="1" parent="1">
          <mxGeometry x="370" y="320" width="230" height="40" as="geometry" />
        </mxCell>
        <mxCell id="0UwFy1Bwz0Mm4Jx-iPy9-19" value="&lt;font style=&quot;font-size: 16px;&quot;&gt;USER&lt;/font&gt;" style="text;html=1;align=center;verticalAlign=middle;whiteSpace=wrap;rounded=0;" vertex="1" parent="1">
          <mxGeometry x="455" y="320" width="60" height="40" as="geometry" />
        </mxCell>
        <mxCell id="0UwFy1Bwz0Mm4Jx-iPy9-20" value="" style="shape=internalStorage;whiteSpace=wrap;html=1;backgroundOutline=1;dx=50;dy=40;" vertex="1" parent="1">
          <mxGeometry x="-90" y="360" width="230" height="180" as="geometry" />
        </mxCell>
        <mxCell id="0UwFy1Bwz0Mm4Jx-iPy9-21" value="&lt;font style=&quot;font-size: 16px;&quot;&gt;PK&lt;/font&gt;" style="text;html=1;align=center;verticalAlign=middle;whiteSpace=wrap;rounded=0;" vertex="1" parent="1">
          <mxGeometry x="-90" y="360" width="50" height="40" as="geometry" />
        </mxCell>
        <mxCell id="0UwFy1Bwz0Mm4Jx-iPy9-22" value="&lt;font style=&quot;font-size: 16px;&quot;&gt;address_id&lt;/font&gt;" style="text;html=1;align=center;verticalAlign=middle;whiteSpace=wrap;rounded=0;" vertex="1" parent="1">
          <mxGeometry x="-30" y="360" width="100" height="40" as="geometry" />
        </mxCell>
        <mxCell id="0UwFy1Bwz0Mm4Jx-iPy9-23" value="&lt;div&gt;&lt;font style=&quot;font-size: 16px;&quot;&gt;user_id&lt;/font&gt;&lt;/div&gt;&lt;div&gt;&lt;font style=&quot;font-size: 16px;&quot;&gt;label&lt;/font&gt;&lt;/div&gt;&lt;div&gt;&lt;font style=&quot;font-size: 16px;&quot;&gt;street_address&lt;/font&gt;&lt;/div&gt;&lt;div&gt;&lt;font style=&quot;font-size: 16px;&quot;&gt;is_default&lt;/font&gt;&lt;/div&gt;&lt;div&gt;&lt;font style=&quot;font-size: 16px;&quot;&gt;created_at&lt;/font&gt;&lt;/div&gt;&lt;div&gt;&lt;font style=&quot;font-size: 16px;&quot;&gt;updated_at&lt;/font&gt;&lt;/div&gt;" style="text;html=1;align=left;verticalAlign=middle;whiteSpace=wrap;rounded=0;" vertex="1" parent="1">
          <mxGeometry x="-20" y="400" width="160" height="140" as="geometry" />
        </mxCell>
        <mxCell id="0UwFy1Bwz0Mm4Jx-iPy9-24" value="" style="rounded=0;whiteSpace=wrap;html=1;" vertex="1" parent="1">
          <mxGeometry x="-90" y="320" width="230" height="40" as="geometry" />
        </mxCell>
        <mxCell id="0UwFy1Bwz0Mm4Jx-iPy9-25" value="&lt;font style=&quot;font-size: 16px;&quot;&gt;ADDRESS&lt;/font&gt;" style="text;html=1;align=center;verticalAlign=middle;whiteSpace=wrap;rounded=0;" vertex="1" parent="1">
          <mxGeometry x="-90" y="320" width="230" height="40" as="geometry" />
        </mxCell>
        <mxCell id="0UwFy1Bwz0Mm4Jx-iPy9-26" value="&lt;font style=&quot;font-size: 16px;&quot;&gt;FK&lt;/font&gt;" style="text;html=1;align=center;verticalAlign=middle;whiteSpace=wrap;rounded=0;" vertex="1" parent="1">
          <mxGeometry x="-90" y="400" width="50" height="40" as="geometry" />
        </mxCell>
        <mxCell id="0UwFy1Bwz0Mm4Jx-iPy9-27" value="" style="shape=internalStorage;whiteSpace=wrap;html=1;backgroundOutline=1;dx=50;dy=40;" vertex="1" parent="1">
          <mxGeometry x="370" y="1330" width="230" height="180" as="geometry" />
        </mxCell>
        <mxCell id="0UwFy1Bwz0Mm4Jx-iPy9-28" value="&lt;font style=&quot;font-size: 16px;&quot;&gt;PK&lt;/font&gt;" style="text;html=1;align=center;verticalAlign=middle;whiteSpace=wrap;rounded=0;" vertex="1" parent="1">
          <mxGeometry x="370" y="1330" width="50" height="40" as="geometry" />
        </mxCell>
        <mxCell id="0UwFy1Bwz0Mm4Jx-iPy9-29" value="&lt;font style=&quot;font-size: 16px;&quot;&gt;machine_id&lt;/font&gt;" style="text;html=1;align=center;verticalAlign=middle;whiteSpace=wrap;rounded=0;" vertex="1" parent="1">
          <mxGeometry x="420" y="1330" width="120" height="40" as="geometry" />
        </mxCell>
        <mxCell id="0UwFy1Bwz0Mm4Jx-iPy9-30" value="&lt;div&gt;&lt;font style=&quot;font-size: 16px;&quot;&gt;machine_type&lt;/font&gt;&lt;/div&gt;&lt;div&gt;&lt;font style=&quot;font-size: 16px;&quot;&gt;machine_status&lt;/font&gt;&lt;/div&gt;&lt;div&gt;&lt;font style=&quot;font-size: 16px;&quot;&gt;current_location&lt;/font&gt;&lt;/div&gt;&lt;div&gt;&lt;font style=&quot;font-size: 16px;&quot;&gt;battery_level&lt;/font&gt;&lt;/div&gt;&lt;div&gt;&lt;font style=&quot;font-size: 16px;&quot;&gt;updated_at&lt;/font&gt;&lt;/div&gt;" style="text;html=1;align=left;verticalAlign=middle;whiteSpace=wrap;rounded=0;" vertex="1" parent="1">
          <mxGeometry x="440" y="1370" width="160" height="140" as="geometry" />
        </mxCell>
        <mxCell id="0UwFy1Bwz0Mm4Jx-iPy9-31" value="" style="rounded=0;whiteSpace=wrap;html=1;" vertex="1" parent="1">
          <mxGeometry x="370" y="1290" width="230" height="40" as="geometry" />
        </mxCell>
        <mxCell id="0UwFy1Bwz0Mm4Jx-iPy9-32" value="&lt;font style=&quot;font-size: 16px;&quot;&gt;MACHINE&lt;/font&gt;" style="text;html=1;align=center;verticalAlign=middle;whiteSpace=wrap;rounded=0;" vertex="1" parent="1">
          <mxGeometry x="455" y="1290" width="60" height="40" as="geometry" />
        </mxCell>
        <mxCell id="0UwFy1Bwz0Mm4Jx-iPy9-33" value="" style="shape=internalStorage;whiteSpace=wrap;html=1;backgroundOutline=1;dx=50;dy=40;" vertex="1" parent="1">
          <mxGeometry x="370" y="830" width="230" height="240" as="geometry" />
        </mxCell>
        <mxCell id="0UwFy1Bwz0Mm4Jx-iPy9-34" value="&lt;font style=&quot;font-size: 16px;&quot;&gt;PK&lt;/font&gt;" style="text;html=1;align=center;verticalAlign=middle;whiteSpace=wrap;rounded=0;" vertex="1" parent="1">
          <mxGeometry x="370" y="830" width="50" height="40" as="geometry" />
        </mxCell>
        <mxCell id="0UwFy1Bwz0Mm4Jx-iPy9-35" value="&lt;font style=&quot;font-size: 16px;&quot;&gt;order_id&lt;/font&gt;" style="text;html=1;align=center;verticalAlign=middle;whiteSpace=wrap;rounded=0;" vertex="1" parent="1">
          <mxGeometry x="420" y="830" width="100" height="40" as="geometry" />
        </mxCell>
        <mxCell id="0UwFy1Bwz0Mm4Jx-iPy9-36" value="&lt;div&gt;&lt;font style=&quot;font-size: 16px;&quot;&gt;user_id&lt;/font&gt;&lt;/div&gt;&lt;div&gt;&lt;font style=&quot;font-size: 16px;&quot;&gt;machine_id&lt;/font&gt;&lt;/div&gt;&lt;div&gt;&lt;font style=&quot;font-size: 16px;&quot;&gt;pickup_address&lt;/font&gt;&lt;/div&gt;&lt;div&gt;&lt;font style=&quot;font-size: 16px;&quot;&gt;dropoff_address&lt;/font&gt;&lt;/div&gt;&lt;div&gt;&lt;font style=&quot;font-size: 16px;&quot;&gt;order_status&lt;/font&gt;&lt;/div&gt;&lt;div&gt;&lt;font style=&quot;font-size: 16px;&quot;&gt;item_description&lt;/font&gt;&lt;/div&gt;&lt;div&gt;&lt;font style=&quot;font-size: 16px;&quot;&gt;item_weight&lt;/font&gt;&lt;/div&gt;&lt;div&gt;&lt;font style=&quot;font-size: 16px;&quot;&gt;cost&lt;/font&gt;&lt;/div&gt;&lt;div&gt;&lt;font style=&quot;font-size: 16px;&quot;&gt;created_at&lt;/font&gt;&lt;/div&gt;&lt;div&gt;&lt;font style=&quot;font-size: 16px;&quot;&gt;updated_at&lt;/font&gt;&lt;/div&gt;" style="text;html=1;align=left;verticalAlign=middle;whiteSpace=wrap;rounded=0;" vertex="1" parent="1">
          <mxGeometry x="440" y="900" width="160" height="140" as="geometry" />
        </mxCell>
        <mxCell id="0UwFy1Bwz0Mm4Jx-iPy9-37" value="" style="rounded=0;whiteSpace=wrap;html=1;" vertex="1" parent="1">
          <mxGeometry x="370" y="790" width="230" height="40" as="geometry" />
        </mxCell>
        <mxCell id="0UwFy1Bwz0Mm4Jx-iPy9-38" value="&lt;font style=&quot;font-size: 16px;&quot;&gt;ORDER&lt;/font&gt;" style="text;html=1;align=center;verticalAlign=middle;whiteSpace=wrap;rounded=0;" vertex="1" parent="1">
          <mxGeometry x="455" y="790" width="60" height="40" as="geometry" />
        </mxCell>
        <mxCell id="0UwFy1Bwz0Mm4Jx-iPy9-39" value="&lt;div&gt;&lt;font style=&quot;font-size: 16px;&quot;&gt;FK&lt;/font&gt;&lt;/div&gt;&lt;div&gt;&lt;font style=&quot;font-size: 16px;&quot;&gt;FK&lt;/font&gt;&lt;/div&gt;" style="text;html=1;align=center;verticalAlign=middle;whiteSpace=wrap;rounded=0;" vertex="1" parent="1">
          <mxGeometry x="370" y="875" width="50" height="40" as="geometry" />
        </mxCell>
        <mxCell id="0UwFy1Bwz0Mm4Jx-iPy9-40" value="" style="shape=internalStorage;whiteSpace=wrap;html=1;backgroundOutline=1;dx=50;dy=40;" vertex="1" parent="1">
          <mxGeometry x="-90" y="870" width="230" height="180" as="geometry" />
        </mxCell>
        <mxCell id="0UwFy1Bwz0Mm4Jx-iPy9-41" value="&lt;font style=&quot;font-size: 16px;&quot;&gt;PK&lt;/font&gt;" style="text;html=1;align=center;verticalAlign=middle;whiteSpace=wrap;rounded=0;" vertex="1" parent="1">
          <mxGeometry x="-90" y="870" width="50" height="40" as="geometry" />
        </mxCell>
        <mxCell id="0UwFy1Bwz0Mm4Jx-iPy9-42" value="&lt;font style=&quot;font-size: 16px;&quot;&gt;payment_id&lt;/font&gt;" style="text;html=1;align=center;verticalAlign=middle;whiteSpace=wrap;rounded=0;" vertex="1" parent="1">
          <mxGeometry x="-30" y="870" width="100" height="40" as="geometry" />
        </mxCell>
        <mxCell id="0UwFy1Bwz0Mm4Jx-iPy9-43" value="&lt;div&gt;&lt;font style=&quot;font-size: 16px;&quot;&gt;user_id&lt;/font&gt;&lt;/div&gt;&lt;div&gt;&lt;font style=&quot;font-size: 16px;&quot;&gt;order_id&lt;/font&gt;&lt;/div&gt;&lt;div&gt;&lt;font style=&quot;font-size: 16px;&quot;&gt;amount&lt;/font&gt;&lt;/div&gt;&lt;div&gt;&lt;font style=&quot;font-size: 16px;&quot;&gt;status&lt;/font&gt;&lt;/div&gt;&lt;div&gt;&lt;font style=&quot;font-size: 16px;&quot;&gt;created_at&lt;/font&gt;&lt;/div&gt;&lt;div&gt;&lt;br&gt;&lt;/div&gt;" style="text;html=1;align=left;verticalAlign=middle;whiteSpace=wrap;rounded=0;" vertex="1" parent="1">
          <mxGeometry x="-20" y="910" width="160" height="126" as="geometry" />
        </mxCell>
        <mxCell id="0UwFy1Bwz0Mm4Jx-iPy9-44" value="" style="rounded=0;whiteSpace=wrap;html=1;" vertex="1" parent="1">
          <mxGeometry x="-90" y="830" width="230" height="40" as="geometry" />
        </mxCell>
        <mxCell id="0UwFy1Bwz0Mm4Jx-iPy9-45" value="&lt;font style=&quot;font-size: 16px;&quot;&gt;PAYMENT&lt;/font&gt;" style="text;html=1;align=center;verticalAlign=middle;whiteSpace=wrap;rounded=0;" vertex="1" parent="1">
          <mxGeometry x="-90" y="830" width="230" height="40" as="geometry" />
        </mxCell>
        <mxCell id="0UwFy1Bwz0Mm4Jx-iPy9-46" value="&lt;div&gt;&lt;font style=&quot;font-size: 16px;&quot;&gt;FK&lt;/font&gt;&lt;/div&gt;&lt;div&gt;&lt;font style=&quot;font-size: 16px;&quot;&gt;FK&lt;/font&gt;&lt;/div&gt;" style="text;html=1;align=center;verticalAlign=middle;whiteSpace=wrap;rounded=0;" vertex="1" parent="1">
          <mxGeometry x="-90" y="919" width="50" height="40" as="geometry" />
        </mxCell>
        <mxCell id="0UwFy1Bwz0Mm4Jx-iPy9-47" value="" style="shape=internalStorage;whiteSpace=wrap;html=1;backgroundOutline=1;dx=50;dy=40;" vertex="1" parent="1">
          <mxGeometry x="840" y="850" width="230" height="180" as="geometry" />
        </mxCell>
        <mxCell id="0UwFy1Bwz0Mm4Jx-iPy9-48" value="&lt;font style=&quot;font-size: 16px;&quot;&gt;PK&lt;/font&gt;" style="text;html=1;align=center;verticalAlign=middle;whiteSpace=wrap;rounded=0;" vertex="1" parent="1">
          <mxGeometry x="840" y="850" width="50" height="40" as="geometry" />
        </mxCell>
        <mxCell id="0UwFy1Bwz0Mm4Jx-iPy9-49" value="&lt;font style=&quot;font-size: 16px;&quot;&gt;feedback_id&lt;/font&gt;" style="text;html=1;align=center;verticalAlign=middle;whiteSpace=wrap;rounded=0;" vertex="1" parent="1">
          <mxGeometry x="900" y="850" width="100" height="40" as="geometry" />
        </mxCell>
        <mxCell id="0UwFy1Bwz0Mm4Jx-iPy9-50" value="&lt;div&gt;&lt;font style=&quot;font-size: 16px;&quot;&gt;user_id&lt;/font&gt;&lt;/div&gt;&lt;div&gt;&lt;font style=&quot;font-size: 16px;&quot;&gt;order_id&lt;/font&gt;&lt;/div&gt;&lt;div&gt;&lt;font style=&quot;font-size: 16px;&quot;&gt;rating&lt;/font&gt;&lt;/div&gt;&lt;div&gt;&lt;font style=&quot;font-size: 16px;&quot;&gt;comment&lt;/font&gt;&lt;/div&gt;&lt;div&gt;&lt;font style=&quot;font-size: 16px;&quot;&gt;created_at&lt;/font&gt;&lt;/div&gt;&lt;div&gt;&lt;font style=&quot;font-size: 16px;&quot;&gt;updated_at&lt;/font&gt;&lt;/div&gt;&lt;div&gt;&lt;br&gt;&lt;/div&gt;" style="text;html=1;align=left;verticalAlign=middle;whiteSpace=wrap;rounded=0;" vertex="1" parent="1">
          <mxGeometry x="910" y="900" width="160" height="130" as="geometry" />
        </mxCell>
        <mxCell id="0UwFy1Bwz0Mm4Jx-iPy9-51" value="" style="rounded=0;whiteSpace=wrap;html=1;" vertex="1" parent="1">
          <mxGeometry x="840" y="810" width="230" height="40" as="geometry" />
        </mxCell>
        <mxCell id="0UwFy1Bwz0Mm4Jx-iPy9-52" value="&lt;font style=&quot;font-size: 16px;&quot;&gt;FEEDBACK&lt;/font&gt;" style="text;html=1;align=center;verticalAlign=middle;whiteSpace=wrap;rounded=0;" vertex="1" parent="1">
          <mxGeometry x="840" y="810" width="230" height="40" as="geometry" />
        </mxCell>
        <mxCell id="0UwFy1Bwz0Mm4Jx-iPy9-53" value="&lt;div&gt;&lt;font style=&quot;font-size: 16px;&quot;&gt;FK&lt;/font&gt;&lt;/div&gt;&lt;div&gt;&lt;font style=&quot;font-size: 16px;&quot;&gt;FK&lt;/font&gt;&lt;/div&gt;" style="text;html=1;align=center;verticalAlign=middle;whiteSpace=wrap;rounded=0;" vertex="1" parent="1">
          <mxGeometry x="840" y="900" width="50" height="40" as="geometry" />
        </mxCell>
        <mxCell id="0UwFy1Bwz0Mm4Jx-iPy9-54" value="" style="shape=internalStorage;whiteSpace=wrap;html=1;backgroundOutline=1;dx=50;dy=40;" vertex="1" parent="1">
          <mxGeometry x="370" y="-90" width="230" height="180" as="geometry" />
        </mxCell>
        <mxCell id="0UwFy1Bwz0Mm4Jx-iPy9-55" value="&lt;font style=&quot;font-size: 16px;&quot;&gt;PK&lt;/font&gt;" style="text;html=1;align=center;verticalAlign=middle;whiteSpace=wrap;rounded=0;" vertex="1" parent="1">
          <mxGeometry x="370" y="-90" width="50" height="40" as="geometry" />
        </mxCell>
        <mxCell id="0UwFy1Bwz0Mm4Jx-iPy9-56" value="&lt;font style=&quot;font-size: 16px;&quot;&gt;notification_id&lt;/font&gt;" style="text;html=1;align=center;verticalAlign=middle;whiteSpace=wrap;rounded=0;" vertex="1" parent="1">
          <mxGeometry x="445" y="-90" width="90" height="40" as="geometry" />
        </mxCell>
        <mxCell id="0UwFy1Bwz0Mm4Jx-iPy9-57" value="&lt;div&gt;&lt;font style=&quot;font-size: 16px;&quot;&gt;user_id&lt;/font&gt;&lt;/div&gt;&lt;div&gt;&lt;font style=&quot;font-size: 16px;&quot;&gt;message&lt;/font&gt;&lt;/div&gt;&lt;div&gt;&lt;font style=&quot;font-size: 16px;&quot;&gt;is_read&lt;/font&gt;&lt;/div&gt;&lt;div&gt;&lt;font style=&quot;font-size: 16px;&quot;&gt;created_at&lt;/font&gt;&lt;/div&gt;&lt;div&gt;&lt;br&gt;&lt;/div&gt;" style="text;html=1;align=left;verticalAlign=middle;whiteSpace=wrap;rounded=0;" vertex="1" parent="1">
          <mxGeometry x="440" y="-65" width="160" height="140" as="geometry" />
        </mxCell>
        <mxCell id="0UwFy1Bwz0Mm4Jx-iPy9-58" value="" style="rounded=0;whiteSpace=wrap;html=1;" vertex="1" parent="1">
          <mxGeometry x="370" y="-130" width="230" height="40" as="geometry" />
        </mxCell>
        <mxCell id="0UwFy1Bwz0Mm4Jx-iPy9-59" value="&lt;font style=&quot;font-size: 16px;&quot;&gt;NOTIFICATION&lt;/font&gt;" style="text;html=1;align=center;verticalAlign=middle;whiteSpace=wrap;rounded=0;" vertex="1" parent="1">
          <mxGeometry x="370" y="-130" width="230" height="40" as="geometry" />
        </mxCell>
        <mxCell id="0UwFy1Bwz0Mm4Jx-iPy9-60" value="&lt;font style=&quot;font-size: 16px;&quot;&gt;FK&lt;/font&gt;" style="text;html=1;align=center;verticalAlign=middle;whiteSpace=wrap;rounded=0;" vertex="1" parent="1">
          <mxGeometry x="370" y="-50" width="50" height="40" as="geometry" />
        </mxCell>
        <mxCell id="0UwFy1Bwz0Mm4Jx-iPy9-61" value="" style="ellipse;whiteSpace=wrap;html=1;aspect=fixed;" vertex="1" parent="1">
          <mxGeometry x="470" y="110" width="20" height="20" as="geometry" />
        </mxCell>
        <mxCell id="0UwFy1Bwz0Mm4Jx-iPy9-63" value="" style="endArrow=none;html=1;rounded=0;exitX=0.5;exitY=0;exitDx=0;exitDy=0;" edge="1" parent="1" source="0UwFy1Bwz0Mm4Jx-iPy9-61">
          <mxGeometry width="50" height="50" relative="1" as="geometry">
            <mxPoint x="430" y="140" as="sourcePoint" />
            <mxPoint x="480" y="90" as="targetPoint" />
          </mxGeometry>
        </mxCell>
        <mxCell id="0UwFy1Bwz0Mm4Jx-iPy9-64" value="" style="endArrow=none;html=1;rounded=0;exitX=0.5;exitY=0;exitDx=0;exitDy=0;" edge="1" parent="1" source="0UwFy1Bwz0Mm4Jx-iPy9-61">
          <mxGeometry width="50" height="50" relative="1" as="geometry">
            <mxPoint x="491" y="110" as="sourcePoint" />
            <mxPoint x="491" y="90" as="targetPoint" />
          </mxGeometry>
        </mxCell>
        <mxCell id="0UwFy1Bwz0Mm4Jx-iPy9-65" value="" style="endArrow=none;html=1;rounded=0;exitX=0.5;exitY=0;exitDx=0;exitDy=0;entryX=0.5;entryY=0;entryDx=0;entryDy=0;" edge="1" parent="1" target="0UwFy1Bwz0Mm4Jx-iPy9-61">
          <mxGeometry width="50" height="50" relative="1" as="geometry">
            <mxPoint x="470" y="90" as="sourcePoint" />
            <mxPoint x="459" y="110" as="targetPoint" />
          </mxGeometry>
        </mxCell>
        <mxCell id="0UwFy1Bwz0Mm4Jx-iPy9-66" value="" style="endArrow=none;html=1;rounded=0;" edge="1" parent="1">
          <mxGeometry width="50" height="50" relative="1" as="geometry">
            <mxPoint x="478" y="323" as="sourcePoint" />
            <mxPoint x="480" y="130" as="targetPoint" />
          </mxGeometry>
        </mxCell>
        <mxCell id="0UwFy1Bwz0Mm4Jx-iPy9-67" value="" style="endArrow=none;html=1;rounded=0;" edge="1" parent="1">
          <mxGeometry width="50" height="50" relative="1" as="geometry">
            <mxPoint x="470" y="310" as="sourcePoint" />
            <mxPoint x="490" y="310" as="targetPoint" />
            <Array as="points">
              <mxPoint x="490" y="310" />
            </Array>
          </mxGeometry>
        </mxCell>
        <mxCell id="0UwFy1Bwz0Mm4Jx-iPy9-68" value="" style="endArrow=none;html=1;rounded=0;" edge="1" parent="1">
          <mxGeometry width="50" height="50" relative="1" as="geometry">
            <mxPoint x="470" y="304" as="sourcePoint" />
            <mxPoint x="490" y="304" as="targetPoint" />
            <Array as="points">
              <mxPoint x="490" y="304" />
            </Array>
          </mxGeometry>
        </mxCell>
        <mxCell id="0UwFy1Bwz0Mm4Jx-iPy9-81" value="" style="ellipse;whiteSpace=wrap;html=1;aspect=fixed;" vertex="1" parent="1">
          <mxGeometry x="160" y="430" width="20" height="20" as="geometry" />
        </mxCell>
        <mxCell id="0UwFy1Bwz0Mm4Jx-iPy9-82" value="" style="endArrow=none;html=1;rounded=0;entryX=-0.005;entryY=0.441;entryDx=0;entryDy=0;entryPerimeter=0;" edge="1" parent="1" target="0UwFy1Bwz0Mm4Jx-iPy9-14">
          <mxGeometry width="50" height="50" relative="1" as="geometry">
            <mxPoint x="180" y="440" as="sourcePoint" />
            <mxPoint x="230" y="390" as="targetPoint" />
          </mxGeometry>
        </mxCell>
        <mxCell id="0UwFy1Bwz0Mm4Jx-iPy9-83" value="" style="endArrow=none;html=1;rounded=0;exitX=1;exitY=0.25;exitDx=0;exitDy=0;" edge="1" parent="1" source="0UwFy1Bwz0Mm4Jx-iPy9-23">
          <mxGeometry width="50" height="50" relative="1" as="geometry">
            <mxPoint x="110" y="490" as="sourcePoint" />
            <mxPoint x="160" y="440" as="targetPoint" />
          </mxGeometry>
        </mxCell>
        <mxCell id="0UwFy1Bwz0Mm4Jx-iPy9-84" value="" style="endArrow=none;html=1;rounded=0;exitX=1.008;exitY=0.313;exitDx=0;exitDy=0;exitPerimeter=0;" edge="1" parent="1" source="0UwFy1Bwz0Mm4Jx-iPy9-23">
          <mxGeometry width="50" height="50" relative="1" as="geometry">
            <mxPoint x="110" y="490" as="sourcePoint" />
            <mxPoint x="160" y="440" as="targetPoint" />
          </mxGeometry>
        </mxCell>
        <mxCell id="0UwFy1Bwz0Mm4Jx-iPy9-85" value="" style="endArrow=none;html=1;rounded=0;exitX=1.013;exitY=0.377;exitDx=0;exitDy=0;exitPerimeter=0;" edge="1" parent="1" source="0UwFy1Bwz0Mm4Jx-iPy9-23">
          <mxGeometry width="50" height="50" relative="1" as="geometry">
            <mxPoint x="110" y="490" as="sourcePoint" />
            <mxPoint x="160" y="440" as="targetPoint" />
          </mxGeometry>
        </mxCell>
        <mxCell id="0UwFy1Bwz0Mm4Jx-iPy9-86" value="" style="endArrow=none;html=1;rounded=0;" edge="1" parent="1">
          <mxGeometry width="50" height="50" relative="1" as="geometry">
            <mxPoint x="360" y="450" as="sourcePoint" />
            <mxPoint x="360" y="425" as="targetPoint" />
          </mxGeometry>
        </mxCell>
        <mxCell id="0UwFy1Bwz0Mm4Jx-iPy9-87" value="" style="endArrow=none;html=1;rounded=0;" edge="1" parent="1">
          <mxGeometry width="50" height="50" relative="1" as="geometry">
            <mxPoint x="354" y="451" as="sourcePoint" />
            <mxPoint x="354" y="426" as="targetPoint" />
          </mxGeometry>
        </mxCell>
        <mxCell id="0UwFy1Bwz0Mm4Jx-iPy9-88" value="" style="ellipse;whiteSpace=wrap;html=1;aspect=fixed;" vertex="1" parent="1">
          <mxGeometry x="470" y="750" width="20" height="20" as="geometry" />
        </mxCell>
        <mxCell id="0UwFy1Bwz0Mm4Jx-iPy9-89" value="" style="endArrow=none;html=1;rounded=0;" edge="1" parent="1">
          <mxGeometry width="50" height="50" relative="1" as="geometry">
            <mxPoint x="470" y="790" as="sourcePoint" />
            <mxPoint x="480" y="770" as="targetPoint" />
          </mxGeometry>
        </mxCell>
        <mxCell id="0UwFy1Bwz0Mm4Jx-iPy9-90" value="" style="endArrow=none;html=1;rounded=0;exitX=0.621;exitY=-0.036;exitDx=0;exitDy=0;exitPerimeter=0;" edge="1" parent="1" source="0UwFy1Bwz0Mm4Jx-iPy9-38">
          <mxGeometry width="50" height="50" relative="1" as="geometry">
            <mxPoint x="430" y="820" as="sourcePoint" />
            <mxPoint x="480" y="770" as="targetPoint" />
          </mxGeometry>
        </mxCell>
        <mxCell id="0UwFy1Bwz0Mm4Jx-iPy9-91" value="" style="endArrow=none;html=1;rounded=0;exitX=0.5;exitY=0;exitDx=0;exitDy=0;" edge="1" parent="1" source="0UwFy1Bwz0Mm4Jx-iPy9-38">
          <mxGeometry width="50" height="50" relative="1" as="geometry">
            <mxPoint x="430" y="820" as="sourcePoint" />
            <mxPoint x="480" y="770" as="targetPoint" />
          </mxGeometry>
        </mxCell>
        <mxCell id="0UwFy1Bwz0Mm4Jx-iPy9-92" value="" style="endArrow=none;html=1;rounded=0;entryX=0.25;entryY=1;entryDx=0;entryDy=0;" edge="1" parent="1" target="0UwFy1Bwz0Mm4Jx-iPy9-17">
          <mxGeometry width="50" height="50" relative="1" as="geometry">
            <mxPoint x="480" y="750" as="sourcePoint" />
            <mxPoint x="530" y="700" as="targetPoint" />
          </mxGeometry>
        </mxCell>
        <mxCell id="0UwFy1Bwz0Mm4Jx-iPy9-93" value="" style="endArrow=none;html=1;rounded=0;" edge="1" parent="1">
          <mxGeometry width="50" height="50" relative="1" as="geometry">
            <mxPoint x="466" y="553" as="sourcePoint" />
            <mxPoint x="496" y="553" as="targetPoint" />
          </mxGeometry>
        </mxCell>
        <mxCell id="0UwFy1Bwz0Mm4Jx-iPy9-94" value="" style="endArrow=none;html=1;rounded=0;" edge="1" parent="1">
          <mxGeometry width="50" height="50" relative="1" as="geometry">
            <mxPoint x="466" y="560" as="sourcePoint" />
            <mxPoint x="496" y="560" as="targetPoint" />
          </mxGeometry>
        </mxCell>
        <mxCell id="0UwFy1Bwz0Mm4Jx-iPy9-95" value="" style="endArrow=none;dashed=1;html=1;rounded=0;entryX=0.003;entryY=0.465;entryDx=0;entryDy=0;entryPerimeter=0;" edge="1" parent="1" target="0UwFy1Bwz0Mm4Jx-iPy9-33">
          <mxGeometry width="50" height="50" relative="1" as="geometry">
            <mxPoint x="140" y="946" as="sourcePoint" />
            <mxPoint x="190" y="896" as="targetPoint" />
          </mxGeometry>
        </mxCell>
        <mxCell id="0UwFy1Bwz0Mm4Jx-iPy9-96" value="" style="endArrow=none;html=1;rounded=0;" edge="1" parent="1">
          <mxGeometry width="50" height="50" relative="1" as="geometry">
            <mxPoint x="153" y="961" as="sourcePoint" />
            <mxPoint x="153" y="931" as="targetPoint" />
          </mxGeometry>
        </mxCell>
        <mxCell id="0UwFy1Bwz0Mm4Jx-iPy9-97" value="" style="endArrow=none;html=1;rounded=0;" edge="1" parent="1">
          <mxGeometry width="50" height="50" relative="1" as="geometry">
            <mxPoint x="159" y="961" as="sourcePoint" />
            <mxPoint x="159" y="931" as="targetPoint" />
          </mxGeometry>
        </mxCell>
        <mxCell id="0UwFy1Bwz0Mm4Jx-iPy9-98" value="" style="endArrow=none;html=1;rounded=0;" edge="1" parent="1">
          <mxGeometry width="50" height="50" relative="1" as="geometry">
            <mxPoint x="354" y="957" as="sourcePoint" />
            <mxPoint x="354" y="927" as="targetPoint" />
          </mxGeometry>
        </mxCell>
        <mxCell id="0UwFy1Bwz0Mm4Jx-iPy9-99" value="" style="endArrow=none;html=1;rounded=0;" edge="1" parent="1">
          <mxGeometry width="50" height="50" relative="1" as="geometry">
            <mxPoint x="360" y="957" as="sourcePoint" />
            <mxPoint x="360" y="927" as="targetPoint" />
          </mxGeometry>
        </mxCell>
        <mxCell id="0UwFy1Bwz0Mm4Jx-iPy9-104" value="" style="endArrow=none;html=1;rounded=0;" edge="1" parent="1">
          <mxGeometry width="50" height="50" relative="1" as="geometry">
            <mxPoint x="617" y="954" as="sourcePoint" />
            <mxPoint x="617" y="924" as="targetPoint" />
          </mxGeometry>
        </mxCell>
        <mxCell id="0UwFy1Bwz0Mm4Jx-iPy9-105" value="" style="endArrow=none;html=1;rounded=0;" edge="1" parent="1">
          <mxGeometry width="50" height="50" relative="1" as="geometry">
            <mxPoint x="624" y="953" as="sourcePoint" />
            <mxPoint x="623" y="924" as="targetPoint" />
          </mxGeometry>
        </mxCell>
        <mxCell id="0UwFy1Bwz0Mm4Jx-iPy9-106" value="" style="endArrow=none;html=1;rounded=0;" edge="1" parent="1">
          <mxGeometry width="50" height="50" relative="1" as="geometry">
            <mxPoint x="818" y="953" as="sourcePoint" />
            <mxPoint x="818" y="923" as="targetPoint" />
          </mxGeometry>
        </mxCell>
        <mxCell id="0UwFy1Bwz0Mm4Jx-iPy9-107" value="" style="endArrow=none;html=1;rounded=0;" edge="1" parent="1">
          <mxGeometry width="50" height="50" relative="1" as="geometry">
            <mxPoint x="824" y="953" as="sourcePoint" />
            <mxPoint x="824" y="923" as="targetPoint" />
          </mxGeometry>
        </mxCell>
        <mxCell id="0UwFy1Bwz0Mm4Jx-iPy9-108" value="" style="endArrow=none;dashed=1;html=1;rounded=0;entryX=0;entryY=1;entryDx=0;entryDy=0;" edge="1" parent="1" target="0UwFy1Bwz0Mm4Jx-iPy9-53">
          <mxGeometry width="50" height="50" relative="1" as="geometry">
            <mxPoint x="600" y="942" as="sourcePoint" />
            <mxPoint x="831" y="938" as="targetPoint" />
          </mxGeometry>
        </mxCell>
        <mxCell id="0UwFy1Bwz0Mm4Jx-iPy9-109" value="" style="endArrow=none;dashed=1;html=1;rounded=0;exitX=0.5;exitY=0;exitDx=0;exitDy=0;" edge="1" parent="1" source="0UwFy1Bwz0Mm4Jx-iPy9-32">
          <mxGeometry width="50" height="50" relative="1" as="geometry">
            <mxPoint x="430" y="1120" as="sourcePoint" />
            <mxPoint x="480" y="1070" as="targetPoint" />
          </mxGeometry>
        </mxCell>
        <mxCell id="0UwFy1Bwz0Mm4Jx-iPy9-110" value="" style="endArrow=none;html=1;rounded=0;" edge="1" parent="1">
          <mxGeometry width="50" height="50" relative="1" as="geometry">
            <mxPoint x="470" y="1082" as="sourcePoint" />
            <mxPoint x="490" y="1082" as="targetPoint" />
          </mxGeometry>
        </mxCell>
        <mxCell id="0UwFy1Bwz0Mm4Jx-iPy9-111" value="" style="endArrow=none;html=1;rounded=0;" edge="1" parent="1">
          <mxGeometry width="50" height="50" relative="1" as="geometry">
            <mxPoint x="471" y="1088" as="sourcePoint" />
            <mxPoint x="491" y="1088" as="targetPoint" />
          </mxGeometry>
        </mxCell>
        <mxCell id="0UwFy1Bwz0Mm4Jx-iPy9-112" value="" style="endArrow=none;html=1;rounded=0;" edge="1" parent="1">
          <mxGeometry width="50" height="50" relative="1" as="geometry">
            <mxPoint x="475" y="1272" as="sourcePoint" />
            <mxPoint x="495" y="1272" as="targetPoint" />
          </mxGeometry>
        </mxCell>
        <mxCell id="0UwFy1Bwz0Mm4Jx-iPy9-113" value="" style="endArrow=none;html=1;rounded=0;" edge="1" parent="1">
          <mxGeometry width="50" height="50" relative="1" as="geometry">
            <mxPoint x="476" y="1278" as="sourcePoint" />
            <mxPoint x="496" y="1278" as="targetPoint" />
          </mxGeometry>
        </mxCell>
        <mxCell id="0UwFy1Bwz0Mm4Jx-iPy9-114" value="" style="endArrow=none;html=1;rounded=0;entryX=0;entryY=1;entryDx=0;entryDy=0;exitX=1;exitY=0;exitDx=0;exitDy=0;" edge="1" parent="1" source="0UwFy1Bwz0Mm4Jx-iPy9-45" target="0UwFy1Bwz0Mm4Jx-iPy9-14">
          <mxGeometry width="50" height="50" relative="1" as="geometry">
            <mxPoint x="200" y="780" as="sourcePoint" />
            <mxPoint x="250" y="730" as="targetPoint" />
          </mxGeometry>
        </mxCell>
        <mxCell id="0UwFy1Bwz0Mm4Jx-iPy9-115" value="" style="endArrow=none;html=1;rounded=0;" edge="1" parent="1">
          <mxGeometry width="50" height="50" relative="1" as="geometry">
            <mxPoint x="141" y="805" as="sourcePoint" />
            <mxPoint x="161" y="825" as="targetPoint" />
          </mxGeometry>
        </mxCell>
        <mxCell id="0UwFy1Bwz0Mm4Jx-iPy9-116" value="" style="endArrow=none;html=1;rounded=0;" edge="1" parent="1">
          <mxGeometry width="50" height="50" relative="1" as="geometry">
            <mxPoint x="146" y="801" as="sourcePoint" />
            <mxPoint x="166" y="821" as="targetPoint" />
          </mxGeometry>
        </mxCell>
        <mxCell id="0UwFy1Bwz0Mm4Jx-iPy9-117" value="" style="endArrow=none;html=1;rounded=0;" edge="1" parent="1">
          <mxGeometry width="50" height="50" relative="1" as="geometry">
            <mxPoint x="342" y="550" as="sourcePoint" />
            <mxPoint x="362" y="570" as="targetPoint" />
          </mxGeometry>
        </mxCell>
        <mxCell id="0UwFy1Bwz0Mm4Jx-iPy9-118" value="" style="endArrow=none;html=1;rounded=0;" edge="1" parent="1">
          <mxGeometry width="50" height="50" relative="1" as="geometry">
            <mxPoint x="347" y="546" as="sourcePoint" />
            <mxPoint x="367" y="566" as="targetPoint" />
          </mxGeometry>
        </mxCell>
        <mxCell id="0UwFy1Bwz0Mm4Jx-iPy9-119" value="" style="endArrow=none;html=1;rounded=0;entryX=0;entryY=0;entryDx=0;entryDy=0;exitX=1;exitY=1;exitDx=0;exitDy=0;" edge="1" parent="1" source="0UwFy1Bwz0Mm4Jx-iPy9-17" target="0UwFy1Bwz0Mm4Jx-iPy9-52">
          <mxGeometry width="50" height="50" relative="1" as="geometry">
            <mxPoint x="760" y="780" as="sourcePoint" />
            <mxPoint x="810" y="730" as="targetPoint" />
          </mxGeometry>
        </mxCell>
        <mxCell id="0UwFy1Bwz0Mm4Jx-iPy9-120" value="" style="endArrow=none;html=1;rounded=0;" edge="1" parent="1">
          <mxGeometry width="50" height="50" relative="1" as="geometry">
            <mxPoint x="814" y="802" as="sourcePoint" />
            <mxPoint x="834" y="782" as="targetPoint" />
          </mxGeometry>
        </mxCell>
        <mxCell id="0UwFy1Bwz0Mm4Jx-iPy9-121" value="" style="endArrow=none;html=1;rounded=0;" edge="1" parent="1">
          <mxGeometry width="50" height="50" relative="1" as="geometry">
            <mxPoint x="818" y="805" as="sourcePoint" />
            <mxPoint x="838" y="785" as="targetPoint" />
          </mxGeometry>
        </mxCell>
        <mxCell id="0UwFy1Bwz0Mm4Jx-iPy9-122" value="" style="endArrow=none;html=1;rounded=0;" edge="1" parent="1">
          <mxGeometry width="50" height="50" relative="1" as="geometry">
            <mxPoint x="597" y="559" as="sourcePoint" />
            <mxPoint x="617" y="539" as="targetPoint" />
          </mxGeometry>
        </mxCell>
        <mxCell id="0UwFy1Bwz0Mm4Jx-iPy9-123" value="" style="endArrow=none;html=1;rounded=0;" edge="1" parent="1">
          <mxGeometry width="50" height="50" relative="1" as="geometry">
            <mxPoint x="601" y="562" as="sourcePoint" />
            <mxPoint x="621" y="542" as="targetPoint" />
          </mxGeometry>
        </mxCell>
        <mxCell id="0UwFy1Bwz0Mm4Jx-iPy9-124" value="" style="ellipse;whiteSpace=wrap;html=1;aspect=fixed;" vertex="1" parent="1">
          <mxGeometry x="150" y="560" width="20" height="20" as="geometry" />
        </mxCell>
        <mxCell id="0UwFy1Bwz0Mm4Jx-iPy9-125" value="" style="endArrow=none;html=1;rounded=0;entryX=1;entryY=1;entryDx=0;entryDy=0;exitX=0;exitY=0;exitDx=0;exitDy=0;" edge="1" parent="1" source="0UwFy1Bwz0Mm4Jx-iPy9-124" target="0UwFy1Bwz0Mm4Jx-iPy9-23">
          <mxGeometry width="50" height="50" relative="1" as="geometry">
            <mxPoint x="300" y="670" as="sourcePoint" />
            <mxPoint x="350" y="620" as="targetPoint" />
          </mxGeometry>
        </mxCell>
        <mxCell id="0UwFy1Bwz0Mm4Jx-iPy9-126" value="" style="endArrow=none;html=1;rounded=0;entryX=1.011;entryY=0.849;entryDx=0;entryDy=0;entryPerimeter=0;" edge="1" parent="1" target="0UwFy1Bwz0Mm4Jx-iPy9-23">
          <mxGeometry width="50" height="50" relative="1" as="geometry">
            <mxPoint x="152" y="563" as="sourcePoint" />
            <mxPoint x="202" y="513" as="targetPoint" />
          </mxGeometry>
        </mxCell>
        <mxCell id="0UwFy1Bwz0Mm4Jx-iPy9-127" value="" style="endArrow=none;html=1;rounded=0;exitX=0.929;exitY=0.993;exitDx=0;exitDy=0;exitPerimeter=0;" edge="1" parent="1" source="0UwFy1Bwz0Mm4Jx-iPy9-23">
          <mxGeometry width="50" height="50" relative="1" as="geometry">
            <mxPoint x="102" y="612" as="sourcePoint" />
            <mxPoint x="152" y="562" as="targetPoint" />
          </mxGeometry>
        </mxCell>
        <mxCell id="0UwFy1Bwz0Mm4Jx-iPy9-128" value="" style="endArrow=none;html=1;rounded=0;entryX=1;entryY=1;entryDx=0;entryDy=0;exitX=0;exitY=0;exitDx=0;exitDy=0;" edge="1" parent="1" source="0UwFy1Bwz0Mm4Jx-iPy9-37" target="0UwFy1Bwz0Mm4Jx-iPy9-124">
          <mxGeometry width="50" height="50" relative="1" as="geometry">
            <mxPoint x="300" y="670" as="sourcePoint" />
            <mxPoint x="350" y="620" as="targetPoint" />
          </mxGeometry>
        </mxCell>
        <mxCell id="0UwFy1Bwz0Mm4Jx-iPy9-129" value="" style="endArrow=none;html=1;rounded=0;" edge="1" parent="1">
          <mxGeometry width="50" height="50" relative="1" as="geometry">
            <mxPoint x="346" y="787" as="sourcePoint" />
            <mxPoint x="366" y="767" as="targetPoint" />
          </mxGeometry>
        </mxCell>
        <mxCell id="0UwFy1Bwz0Mm4Jx-iPy9-130" value="" style="endArrow=none;html=1;rounded=0;" edge="1" parent="1">
          <mxGeometry width="50" height="50" relative="1" as="geometry">
            <mxPoint x="350" y="790" as="sourcePoint" />
            <mxPoint x="370" y="770" as="targetPoint" />
          </mxGeometry>
        </mxCell>
      </root>
    </mxGraphModel>
  </diagram>
</mxfile>
